<svg xmlns="http://www.w3.org/2000/svg" xml:space="preserve" fill-rule="evenodd" stroke-linejoin="round" stroke-miterlimit="2" clip-rule="evenodd" viewBox="0 0 256 256">
  <path fill="#263238" d="M0 0h256v256H0z"/>
  <path fill="#fff" fill-rule="nonzero" d="M127.999 53.684h.773c7.728 0 14.168 2.318 19.063 6.955s7.47 10.562 7.47 17.776h16.23l.257-.516c.258-10.046-3.606-18.805-11.334-26.276-7.729-7.47-18.29-11.335-31.686-11.335h-.773zM133.666 97.735c-10.562-2.833-18.033-5.925-22.67-9.531-3.606-2.834-5.667-6.183-6.44-9.79h-17.26c.773 7.729 4.38 14.17 10.562 19.579 7.213 6.183 17.003 10.82 29.883 13.91 10.305 2.577 17.518 5.926 21.64 9.79 3.09 2.834 4.894 6.183 5.667 9.79h17.26c-.773-7.471-4.122-13.912-9.79-19.322-6.44-6.182-16.229-11.077-28.852-14.426M127.999 156.213c-6.956-.258-13.138-2.319-18.806-6.44-5.925-4.38-9.016-10.305-9.016-18.29h-16.23l-.257.514c-.258 11.335 4.122 20.61 13.653 27.307 9.016 6.44 19.063 9.79 30.656 10.047z"/>
  <circle cx="11" cy="70" r="4" fill="#80cbc4" transform="scale(3.2)"/>
  <circle cx="25" cy="70" r="4" fill="#c3e88d" transform="scale(3.2)"/>
  <circle cx="40" cy="70" r="4" fill="#82aaff" transform="scale(3.2)"/>
  <circle cx="55" cy="70" r="4" fill="#ffcb6b" transform="scale(3.2)"/>
  <circle cx="69" cy="70" r="4" fill="#f78c6c" transform="scale(3.2)"/>
</svg>